<svg xmlns="http://www.w3.org/2000/svg" viewBox="0 0 24 24" class="about-icon">
    <path fill="currentColor" d="M23.475 4.031c-.369.013-.262.179-1.06.376c-.805.198-1.78.077-2.646.441c-2.267.95-2.634 4.624-5.335 6.045c-1.77 1-3.576 1.229-5.19 1.735c-1.295.52-2.101.864-3.051 1.683c-.737.635-.917 1.252-1.687 2.05c-.782 1.062-3.744.118-4.506 1.45c.402.26.634.332 1.34.24c-.146.276-1.074.64-.906 1.048c0 0 2.245.409 4.137-.733c.882-.359 1.71-1.119 3.08-1.301c1.777-.236 3.778.373 5.925.544c-.444.877-.902 1.395-1.391 2.119c-.152.163.13.307.65.209c.937-.232 1.615-.483 2.289-.949c.878-.606 1.256-1.16 1.997-2.039c.644 1.032 2.914 1.26 3.38.367c-.867-.367-1.052-2.277-.755-3.101c.35-.786.603-1.896.886-2.928c.256-.93.413-2.349.718-3.075c.365-.903 1.073-1.185 1.605-1.664S24.015 5.67 24 4.574c-.006-.356-.19-.553-.525-.543m-.573.445c.09.307.231.448.841.504c-.089.774-.606 1.196-1.183 1.602c-.509.356-1.066.7-1.424 1.258c-.367.57-.951 2.23-1.52 4.159c-.492 1.668-1.065 2.807-2.276 3.807c-.15-.36.17-.568.03-.897c-.175.496-.558 1.218-.789 1.66c-.76 1.454-2.019 2.63-3.901 2.962c.893-1.21 1.787-2.543 1.896-4.627c-.4.087-.432 1.164-1.078 1.56c-.415.045-.995-.05-1.573-.12c-1.726-.203-3.465-.282-5.087.24c-1.105.353-2.356 1.447-3.292 1.853c-1.1.478-1.477.515-2.869.473c-.174-.234 1.002-.536.936-1.047c-.536-.058-.848.071-1.314-.14a.7.7 0 0 1 .223-.24c.854-.59 3.278-.14 3.927-.777c.401-.392.663-.804.935-1.204c.265-.388.538-.765.953-1.105c.154-.125.394-.341.571-.463c.709-.484 1.51-.831 2.373-1.133c1.174-.413 2.361-.552 3.613-1.03c.774-.296 1.508-.576 2.193-1.088c.162-.121.407-.326.55-.465c2.22-2.192 2.361-5.177 5.415-5.49c.37-.038.672-.026.948-.034c.317-.01.597-.047.902-.218m-.15.197c-.017 0-.049.015-.093.056c-.265.272-.79.884-.98 1.454c-.05.155.048.11.082.01c.189-.584.788-1.226.971-1.42c.045-.052.051-.099.02-.1m.08.133c-.017.002-.046.022-.084.069c-.224.306-.657.77-.766 1.36c-.027.16.064.103.082-.001c.106-.605.608-1.11.763-1.327c.037-.058.036-.105.006-.101zm.098.12c-.017.004-.044.026-.077.076c-.199.325-.46.699-.519 1.295c-.013.162.073.097.083-.008c.052-.612.379-1.032.515-1.262c.032-.06.028-.107-.002-.1zm.107.091q-.027.006-.071.082c-.169.34-.328.6-.334 1.2c.002.163.08.09.081-.015c0-.614.22-.925.335-1.166c.026-.063.018-.11-.011-.1zm-2.064.294q-.788.021-.938.68c.432.375 1.338.074 1.177-.672a2 2 0 0 0-.24-.008Z"/>
</svg>
