<?xml version="1.0" encoding="UTF-8"?>
<svg width="263px" height="100px" viewBox="0 0 263 100" version="1.1" xmlns="http://www.w3.org/2000/svg" xmlns:xlink="http://www.w3.org/1999/xlink">
    <title>Logo/Normal</title>
    <g id="Logo/Normal" stroke="none" stroke-width="1" fill="none" fill-rule="evenodd">
        <g id="Group" transform="translate(107.962963, 27.962963)" fill="#2D1830" fill-rule="nonzero">
            <path d="M28.4259259,41.1111111 C26.8518519,40.9259259 25.5555556,40.0925926 24.6296296,38.7962963 C26.3888889,37.037037 27.7777778,33.4259259 28.1481481,31.5740741 C28.7037037,28.7962963 30.1851852,28.4259259 31.6666667,28.4259259 L31.6666667,26.9444444 L23.1481481,26.9444444 L23.1481481,28.3333333 C24.9074074,28.4259259 26.2962963,29.0740741 26.2962963,31.0185185 C26.0185185,33.4259259 25.0925926,35.6481481 23.5185185,37.5 C20.9259259,33.5185185 15.7407407,25.1851852 15.7407407,21.5740741 C15.7407407,18.6111111 17.1296296,16.4814815 19.9074074,16.4814815 C20.8333333,16.4814815 22.1296296,16.8518519 22.1296296,17.3148148 C21.8518519,18.0555556 21.7592593,18.7962963 21.6666667,19.537037 C21.6666667,20.6481481 22.5925926,22.037037 23.7037037,22.037037 C24.8148148,22.1296296 25.7407407,21.3888889 25.8333333,20.2777778 C25.8333333,20.1851852 25.8333333,20.1851852 25.8333333,20.0925926 C26.3888889,20.1851852 26.9444444,20.1851852 27.4074074,20.1851852 C33.8888889,20.1851852 37.037037,15.1851852 37.037037,10.0925926 C37.037037,5 33.8888889,1.64477485e-14 27.4074074,1.64477485e-14 C20.9259259,1.64477485e-14 17.7777778,5.09259259 17.7777778,10.0925926 C17.7777778,11.8518519 18.1481481,13.6111111 18.9814815,15.1851852 C17.5925926,15.2777778 16.2962963,15.8333333 15.2777778,16.6666667 C15.9259259,15.462963 16.2037037,14.1666667 16.2962963,12.7777778 L14.6296296,12.7777778 C14.3518519,16.2037037 12.5925926,18.7037037 9.07407407,18.7037037 C4.62962963,18.7037037 2.96296296,14.537037 2.96296296,10.1851852 C2.96296296,5.27777778 4.62962963,1.57407407 9.07407407,1.57407407 C12.037037,1.57407407 14.2592593,3.98148148 14.7222222,8.05555556 L16.1111111,8.05555556 L16.1111111,0.462962963 L14.8148148,0.462962963 L14.0740741,2.31481481 C12.6851852,0.925925926 10.7407407,0.0925925926 8.7037037,1.64477485e-14 C2.87037037,1.64477485e-14 0,4.35185185 0,10.0925926 C0,15.5555556 2.5,20.1851852 8.42592593,20.1851852 C10.1851852,20.2777778 12.037037,19.7222222 13.4259259,18.7037037 C12.7777778,19.9074074 12.4074074,21.2962963 12.4074074,22.5925926 C12.4074074,24.0740741 12.6851852,25.5555556 13.2407407,26.9444444 C9.44444444,29.0740741 6.2962963,31.3888889 6.2962963,36.2962963 C6.2962963,41.4814815 10,44.1666667 14.3518519,44.1666667 C17.1296296,44.2592593 19.8148148,43.2407407 21.8518519,41.3888889 C23.3333333,42.8703704 24.7222222,44.1666667 26.8518519,44.1666667 C28.9814815,44.1666667 31.1111111,41.9444444 32.037037,39.9074074 L31.0185185,38.9814815 C30.8333333,40.2777778 29.7222222,41.1111111 28.4259259,41.1111111 Z M27.7777778,1.57407407 C32.5925926,1.57407407 34.537037,5.74074074 34.537037,10.1851852 C34.537037,14.6296296 32.5925926,18.7037037 27.7777778,18.7037037 C27.1296296,18.7037037 26.5740741,18.6111111 25.9259259,18.4259259 C25.2777778,16.8518519 23.8888889,15.7407407 22.2222222,15.3703704 C21.3888889,13.7037037 20.9259259,11.9444444 21.0185185,10.0925926 C21.0185185,5.74074074 22.962963,1.57407407 27.7777778,1.57407407 Z M16.9444444,42.2222222 C12.962963,42.2222222 10.3703704,38.7037037 10.3703704,34.3518519 C10.3703704,31.4814815 11.9444444,29.7222222 14.2592593,28.5185185 C16.1111111,32.7777778 18.4259259,36.7592593 21.1111111,40.462963 C20,41.4814815 18.5185185,42.1296296 16.9444444,42.2222222 Z" id="Shape"></path>
            <path d="M42.037037,42.4074074 C37.5925926,42.4074074 35.9259259,38.2407407 35.9259259,33.8888889 C35.9259259,28.9814815 37.5925926,25.2777778 42.037037,25.2777778 C45,25.2777778 47.2222222,27.6851852 47.6851852,31.7592593 L49.0740741,31.7592593 L49.0740741,24.1666667 L47.7777778,24.1666667 L47.037037,26.0185185 C45.6481481,24.6296296 43.7037037,23.7962963 41.6666667,23.7037037 C35.8333333,23.7037037 32.962963,28.0555556 32.962963,33.8888889 C32.962963,39.3518519 35.462963,43.9814815 41.3888889,43.9814815 C45.8333333,43.9814815 48.8888889,41.7592593 49.1666667,36.4814815 L47.5925926,36.4814815 C47.2222222,39.9074074 45.462963,42.4074074 42.037037,42.4074074 Z" id="Path"></path>
            <path d="M68.7962963,40.0925926 C68.7962963,40.7407407 68.7037037,42.2222222 67.8703704,42.2222222 C67.2222222,42.2222222 67.037037,42.037037 67.037037,40.7407407 C67.037037,36.3888889 66.2962963,33.9814815 63.1481481,33.7037037 L63.1481481,33.6111111 C65.6481481,33.3333333 68.0555556,32.2222222 68.0555556,29.0740741 C68.0555556,25.5555556 65.0925926,24.2592593 61.7592593,24.2592593 L50.7407407,24.2592593 L50.7407407,25.7407407 L52.7777778,25.7407407 C53.6111111,25.7407407 53.9814815,26.2962963 53.9814815,27.2222222 L53.9814815,40.3703704 C53.9814815,41.2962963 53.6111111,41.8518519 52.7777778,41.8518519 L50.7407407,41.8518519 L50.7407407,43.3333333 L59.9074074,43.3333333 L59.9074074,41.8518519 L57.8703704,41.8518519 C57.037037,41.8518519 56.6666667,41.2962963 56.6666667,40.3703704 L56.6666667,34.1666667 L60.0925926,34.1666667 C63.7037037,34.1666667 64.537037,36.2037037 64.537037,41.2037037 C64.3518519,42.5925926 65.3703704,43.7962963 66.7592593,43.8888889 C66.9444444,43.8888889 67.1296296,43.8888889 67.3148148,43.8888889 C69.3518519,43.8888889 70.3703704,42.7777778 70.3703704,38.5185185 L68.9814815,38.5185185 L68.7962963,40.0925926 Z M60.8333333,32.6851852 L56.5740741,32.6851852 L56.5740741,25.7407407 L60.3703704,25.7407407 C64.1666667,25.7407407 65.1851852,26.6666667 65.1851852,29.1666667 C65.0925926,31.7592593 63.5185185,32.6851852 60.8333333,32.6851852 L60.8333333,32.6851852 Z" id="Shape"></path>
            <path d="M71.4814815,25.7407407 L73.5185185,25.7407407 C74.3518519,25.7407407 74.7222222,26.2962963 74.7222222,27.2222222 L74.7222222,40.3703704 C74.7222222,41.2962963 74.3518519,41.8518519 73.5185185,41.8518519 L71.4814815,41.8518519 L71.4814815,43.3333333 L80.5555556,43.3333333 L80.5555556,41.8518519 L78.5185185,41.8518519 C77.6851852,41.8518519 77.3148148,41.2962963 77.3148148,40.3703704 L77.3148148,27.3148148 C77.3148148,26.3888889 77.6851852,25.8333333 78.5185185,25.8333333 L80.5555556,25.8333333 L80.5555556,24.3518519 L71.4814815,24.3518519 L71.4814815,25.7407407 Z" id="Path"></path>
            <path d="M93.8888889,33.4259259 L93.8888889,33.4259259 C96.1111111,32.962963 98.2407407,31.8518519 98.2407407,28.9814815 C98.2407407,25.8333333 95.5555556,24.2592593 92.2222222,24.2592593 L81.5740741,24.2592593 L81.5740741,25.7407407 L83.5185185,25.7407407 C84.3518519,25.7407407 84.7222222,26.2962963 84.7222222,27.2222222 L84.7222222,40.3703704 C84.8148148,41.1111111 84.3518519,41.7592593 83.6111111,41.8518519 C83.5185185,41.8518519 83.4259259,41.8518519 83.3333333,41.8518519 L81.4814815,41.8518519 L81.4814815,43.3333333 L90.6481481,43.3333333 C96.4814815,43.3333333 98.7962963,41.4814815 98.7962963,38.2407407 C98.7962963,35 96.5740741,33.7962963 93.8888889,33.4259259 Z M87.4074074,25.7407407 L90.9259259,25.7407407 C94.537037,25.7407407 95.6481481,27.037037 95.6481481,29.2592593 C95.6481481,31.4814815 93.8888889,32.6851852 90.9259259,32.6851852 L87.4074074,32.6851852 L87.4074074,25.7407407 Z M91.2037037,41.8518519 L87.4074074,41.8518519 L87.4074074,34.1666667 L91.2037037,34.1666667 C93.8888889,34.1666667 96.0185185,34.9074074 96.0185185,38.0555556 C96.0185185,41.2037037 93.8888889,41.8518519 91.2037037,41.8518519 L91.2037037,41.8518519 Z" id="Shape"></path>
            <path d="M111.666667,41.8518519 L106.666667,41.8518519 L106.666667,27.3148148 C106.666667,26.3888889 107.037037,25.8333333 107.87037,25.8333333 L109.907407,25.8333333 L109.907407,24.3518519 L100.833333,24.3518519 L100.833333,25.7407407 L102.87037,25.7407407 C103.703704,25.7407407 104.074074,26.2962963 104.074074,27.2222222 L104.074074,40.3703704 C104.074074,41.2962963 103.703704,41.8518519 102.87037,41.8518519 L100.833333,41.8518519 L100.833333,43.3333333 L117.407407,43.3333333 L117.407407,35.462963 L116.018519,35.462963 C116.018519,40.7407407 114.814815,41.8518519 111.666667,41.8518519 Z" id="Path"></path>
            <path d="M118.703704,25.7407407 L120.555556,25.7407407 C121.388889,25.7407407 121.759259,26.2962963 121.759259,27.2222222 L121.759259,40.3703704 C121.759259,41.2962963 121.388889,41.8518519 120.555556,41.8518519 L118.611111,41.8518519 L118.611111,43.3333333 L135.648148,43.3333333 L135.648148,35.5555556 L134.259259,35.5555556 C134.166667,39.6296296 133.888889,41.8518519 129.907407,41.8518519 L124.259259,41.8518519 L124.259259,34.1666667 L126.481481,34.1666667 C128.611111,34.1666667 128.888889,34.8148148 128.981481,38.2407407 L130.37037,38.2407407 L130.37037,28.8888889 L129.074074,28.8888889 C128.981481,32.037037 128.703704,32.6851852 126.574074,32.6851852 L124.351852,32.6851852 L124.351852,25.7407407 L130,25.7407407 C133.888889,25.7407407 134.166667,27.8703704 134.351852,31.4814815 L135.740741,31.4814815 L135.740741,24.2592593 L118.703704,24.2592593 L118.703704,25.7407407 L118.703704,25.7407407 Z" id="Path"></path>
            <path d="M138.055556,24.2592593 L138.055556,31.7592593 L139.444444,31.7592593 C139.444444,27.7777778 140.092593,25.7407407 143.796296,25.7407407 L145,25.7407407 L145,40.3703704 C145,41.2962963 144.62963,41.8518519 143.796296,41.8518519 L141.481481,41.8518519 L141.481481,43.3333333 L151.018519,43.3333333 L151.018519,41.8518519 L148.796296,41.8518519 C147.962963,41.8518519 147.592593,41.2962963 147.592593,40.3703704 L147.592593,25.7407407 L148.611111,25.7407407 C152.5,25.7407407 153.148148,27.5925926 153.148148,31.7592593 L154.537037,31.7592593 L154.537037,24.2592593 L138.055556,24.2592593 Z" id="Path"></path>
            <path d="M40.1851852,3.61111111 L40.1851852,16.7592593 C40.1851852,17.6851852 39.8148148,18.2407407 38.9814815,18.2407407 L36.9444444,18.2407407 L36.9444444,19.7222222 L53.5185185,19.7222222 L53.5185185,11.8518519 L52.1296296,11.8518519 C52.1296296,17.037037 51.0185185,18.2407407 47.8703704,18.2407407 L42.8703704,18.2407407 L42.8703704,3.61111111 C42.8703704,2.68518519 43.2407407,2.12962963 44.0740741,2.12962963 L46.1111111,2.12962963 L46.1111111,0.648148148 L37.037037,0.648148148 L37.037037,2.12962963 L39.0740741,2.12962963 C39.8148148,2.12962963 40.1851852,2.59259259 40.1851852,3.61111111 Z" id="Path"></path>
            <path d="M65.5555556,18.1481481 L60.5555556,18.1481481 L60.5555556,3.61111111 C60.5555556,2.68518519 60.9259259,2.12962963 61.7592593,2.12962963 L63.7962963,2.12962963 L63.7962963,0.648148148 L54.7222222,0.648148148 L54.7222222,2.12962963 L56.7592593,2.12962963 C57.5925926,2.12962963 57.962963,2.68518519 57.962963,3.61111111 L57.962963,16.7592593 C57.962963,17.6851852 57.5925926,18.2407407 56.7592593,18.2407407 L54.7222222,18.2407407 L54.7222222,19.7222222 L71.2962963,19.7222222 L71.2962963,11.8518519 L69.8148148,11.8518519 C69.8148148,17.037037 68.7037037,18.1481481 65.5555556,18.1481481 Z" id="Path"></path>
            <path d="M80.2777778,18.1481481 L78.7962963,18.1481481 C77.5,18.1481481 77.2222222,18.0555556 77.2222222,17.5 C77.3148148,16.9444444 77.5,16.3888889 77.6851852,15.8333333 L78.5185185,13.2407407 L85.3703704,13.2407407 L86.2037037,15.5555556 C86.4814815,16.2037037 86.6666667,16.7592593 86.7592593,17.4074074 C86.7592593,17.8703704 86.4814815,18.0555556 85.3703704,18.0555556 L83.7037037,18.0555556 L83.7037037,19.537037 L92.1296296,19.537037 L92.1296296,18.0555556 L91.1111111,18.0555556 C90.1851852,18.0555556 89.4444444,17.5 89.1666667,16.6666667 L83.3333333,0.37037037 L81.1111111,0.37037037 L75.5555556,16.4814815 C75.1851852,17.5925926 74.8148148,18.2407407 73.6111111,18.2407407 L72.5,18.2407407 L72.5,19.7222222 L80.1851852,19.7222222 L80.1851852,18.1481481 L80.2777778,18.1481481 Z M81.9444444,3.61111111 L84.9074074,11.8518519 L79.0740741,11.8518519 L81.9444444,3.61111111 Z" id="Shape"></path>
            <path d="M106.481481,12.3148148 L106.481481,3.61111111 C106.481481,2.68518519 106.851852,2.12962963 107.685185,2.12962963 L109.62963,2.12962963 L109.62963,0.648148148 L101.574074,0.648148148 L101.574074,2.12962963 L103.611111,2.12962963 C104.444444,2.12962963 104.814815,2.68518519 104.814815,3.61111111 L104.814815,12.6851852 C104.814815,16.3888889 103.888889,18.6111111 100.092593,18.6111111 C96.9444444,18.6111111 95.6481481,16.9444444 95.6481481,13.5185185 L95.6481481,3.61111111 C95.6481481,2.68518519 96.0185185,2.12962963 96.8518519,2.12962963 L98.7962963,2.12962963 L98.7962963,0.648148148 L89.9074074,0.648148148 L89.9074074,2.12962963 L91.8518519,2.12962963 C92.6851852,2.12962963 93.0555556,2.68518519 93.0555556,3.61111111 L93.0555556,14.0740741 C93.0555556,18.2407407 95.6481481,20.2777778 99.3518519,20.2777778 C104.62963,20.2777778 106.481481,18.0555556 106.481481,12.3148148 Z" id="Path"></path>
            <path d="M130.092593,10.1851852 C130.092593,3.14814815 125.925926,0.648148148 120.462963,0.648148148 L110.555556,0.648148148 L110.555556,2.12962963 L112.407407,2.12962963 C113.333333,2.12962963 113.611111,2.68518519 113.611111,3.61111111 L113.611111,16.7592593 C113.611111,17.6851852 113.240741,18.2407407 112.407407,18.2407407 L110.555556,18.2407407 L110.555556,19.7222222 L120.925926,19.7222222 C125.833333,19.7222222 130.092593,16.9444444 130.092593,10.1851852 Z M116.296296,18.1481481 L116.296296,2.12962963 L119.722222,2.12962963 C124.907407,2.12962963 127.222222,4.62962963 127.222222,10.1851852 C127.222222,15.7407407 124.907407,18.2407407 120.185185,18.2407407 L116.296296,18.2407407 L116.296296,18.1481481 Z" id="Shape"></path>
        </g>
        <path d="M93.7037037,49.9074074 C93.7037037,74.0740741 74.0740741,93.7040299 49.9074074,93.7040299 C25.7407407,93.7962963 6.11111111,74.1666667 6.11111111,50 C6.11111111,25.8333333 25.7407407,6.11111111 49.9074074,6.11111111 C49.9074074,6.11111111 49.9074074,6.11111111 49.9074074,6.11111111 C74.1666667,6.11111111 93.7037037,25.7407407 93.7037037,49.9074074 Z" id="Path" fill="#69B234" fill-rule="nonzero"></path>
        <path d="M0,49.9074074 C0,77.5 22.3148148,99.8148148 49.9074074,99.8148148 C77.5,99.8148148 99.8148148,77.5 99.8148148,49.9074074 C99.8148148,22.3148148 77.5,0 49.9074074,0 C49.9074074,0 49.9074074,0 49.9074074,0 C22.4074074,0 0,22.4074074 0,49.9074074 Z M1.57407407,49.9074074 C1.57407407,23.2407407 23.2407407,1.57407407 49.9074074,1.57407407 C76.5740741,1.57407407 98.2407407,23.2407407 98.2407407,49.9074074 C98.2407407,76.5740741 76.5740741,98.2407407 49.9074074,98.2407407 C23.2407407,98.2407407 1.57407407,76.5740741 1.57407407,49.9074074 Z" id="Shape" fill="#69B234" fill-rule="nonzero"></path>
        <path d="M30.9259259,72.962963 L38.8888889,72.962963 C35,67.3148148 37.3148148,60.9259259 39.0740741,57.4074074 C36.1111111,57.6851852 33.1481481,58.7037037 30.5555556,60.1851852 C32.3148148,65 31.2037037,71.2037037 30.9259259,72.962963 Z" id="Path" fill="#FFFFFF" fill-rule="nonzero"></path>
        <path d="M81.2037037,49.6296296 C83.7037037,49.7222222 86.2037037,49.3518519 88.6111111,48.5185185 C86.1111111,48.2407407 83.6111111,47.5925926 81.2962963,46.4814815 C81.2962963,44.0740741 80.9259259,41.6666667 80.3703704,39.3518519 C80.3703704,39.3518519 77.6851852,29.9074074 68.3333333,25.9259259 C66.2962963,26.0185185 64.1666667,26.3888889 62.1296296,26.9444444 C60.1851852,26.3888889 58.2407407,26.2037037 56.2962963,26.2962963 C54.3518519,27.5 52.4074074,28.7962963 50.6481481,30.1851852 L50.3703704,30.1851852 L39.6296296,29.537037 C33.7037037,29.0740741 21.8518519,29.1666667 18.5185185,46.0185185 C19.6296296,50.1851852 19.1666667,58.1481481 16.6666667,64.6296296 C17.8703704,64.1666667 18.9814815,63.4259259 20,62.6851852 C18.7037037,66.0185185 17.962963,69.537037 17.6851852,73.0555556 L24.7222222,73.0555556 C24.7222222,73.0555556 19.4444444,55.462963 46.2037037,55.7407407 C45.462963,58.7037037 45.0925926,61.8518519 45.3703704,64.9074074 L45.2777778,64.9074074 C41.6666667,65.2777778 40,66.9444444 39.3518519,67.8703704 L43.3333333,72.7777778 C43.7962963,72.1296296 45.7407407,69.8148148 51.9444444,68.2407407 C51.2962963,63.9814815 52.1296296,59.7222222 54.2592593,56.0185185 C59.6296296,66.4814815 59.0740741,71.6666667 58.7037037,73.1481481 L67.1296296,73.1481481 C63.3333333,64.8148148 62.1296296,55.462963 63.7962963,46.3888889 C64.9074074,46.6666667 66.1111111,46.5740741 67.3148148,46.2962963 C66.4814815,44.3518519 67.5,43.8888889 68.2407407,43.7037037 C70.3703704,46.0185185 73.0555556,47.7777778 76.0185185,48.8888889 C76.2962963,52.1296296 77.8703704,63.7037037 86.9444444,67.8703704 C87.3148148,67.1296296 87.6851852,66.3888889 87.962963,65.5555556 C84.8148148,63.9814815 80.1851852,60.0925926 81.2037037,49.6296296 Z" id="Path" fill="#FFFFFF" fill-rule="nonzero"></path>
    </g>
</svg>