<?xml version="1.0" encoding="UTF-8"?>
<svg viewBox="0 0 100 100" xmlns="http://www.w3.org/2000/svg">
    <path d="M93.7037037,49.9074074 C93.7037037,74.0740741 74.0740741,93.7040299 49.9074074,93.7040299 C25.7407407,93.7962963 6.11111111,74.1666667 6.11111111,50 C6.11111111,25.8333333 25.7407407,6.11111111 49.9074074,6.11111111 C49.9074074,6.11111111 49.9074074,6.11111111 49.9074074,6.11111111 C74.1666667,6.11111111 93.7037037,25.7407407 93.7037037,49.9074074 Z"
          fill="#69B234"/>
    <path d="M0,49.9074074 C0,77.5 22.3148148,99.8148148 49.9074074,99.8148148 C77.5,99.8148148 99.8148148,77.5 99.8148148,49.9074074 C99.8148148,22.3148148 77.5,0 49.9074074,0 C49.9074074,0 49.9074074,0 49.9074074,0 C22.4074074,0 0,22.4074074 0,49.9074074 Z M1.57407407,49.9074074 C1.57407407,23.2407407 23.2407407,1.57407407 49.9074074,1.57407407 C76.5740741,1.57407407 98.2407407,23.2407407 98.2407407,49.9074074 C98.2407407,76.5740741 76.5740741,98.2407407 49.9074074,98.2407407 C23.2407407,98.2407407 1.57407407,76.5740741 1.57407407,49.9074074 Z"
          fill="#69B234"/>
    <path d="M30.9259259,72.962963 L38.8888889,72.962963 C35,67.3148148 37.3148148,60.9259259 39.0740741,57.4074074 C36.1111111,57.6851852 33.1481481,58.7037037 30.5555556,60.1851852 C32.3148148,65 31.2037037,71.2037037 30.9259259,72.962963 Z"
          fill="#FFFFFF"/>
    <path d="M81.2037037,49.6296296 C83.7037037,49.7222222 86.2037037,49.3518519 88.6111111,48.5185185 C86.1111111,48.2407407 83.6111111,47.5925926 81.2962963,46.4814815 C81.2962963,44.0740741 80.9259259,41.6666667 80.3703704,39.3518519 C80.3703704,39.3518519 77.6851852,29.9074074 68.3333333,25.9259259 C66.2962963,26.0185185 64.1666667,26.3888889 62.1296296,26.9444444 C60.1851852,26.3888889 58.2407407,26.2037037 56.2962963,26.2962963 C54.3518519,27.5 52.4074074,28.7962963 50.6481481,30.1851852 L50.3703704,30.1851852 L39.6296296,29.537037 C33.7037037,29.0740741 21.8518519,29.1666667 18.5185185,46.0185185 C19.6296296,50.1851852 19.1666667,58.1481481 16.6666667,64.6296296 C17.8703704,64.1666667 18.9814815,63.4259259 20,62.6851852 C18.7037037,66.0185185 17.962963,69.537037 17.6851852,73.0555556 L24.7222222,73.0555556 C24.7222222,73.0555556 19.4444444,55.462963 46.2037037,55.7407407 C45.462963,58.7037037 45.0925926,61.8518519 45.3703704,64.9074074 L45.2777778,64.9074074 C41.6666667,65.2777778 40,66.9444444 39.3518519,67.8703704 L43.3333333,72.7777778 C43.7962963,72.1296296 45.7407407,69.8148148 51.9444444,68.2407407 C51.2962963,63.9814815 52.1296296,59.7222222 54.2592593,56.0185185 C59.6296296,66.4814815 59.0740741,71.6666667 58.7037037,73.1481481 L67.1296296,73.1481481 C63.3333333,64.8148148 62.1296296,55.462963 63.7962963,46.3888889 C64.9074074,46.6666667 66.1111111,46.5740741 67.3148148,46.2962963 C66.4814815,44.3518519 67.5,43.8888889 68.2407407,43.7037037 C70.3703704,46.0185185 73.0555556,47.7777778 76.0185185,48.8888889 C76.2962963,52.1296296 77.8703704,63.7037037 86.9444444,67.8703704 C87.3148148,67.1296296 87.6851852,66.3888889 87.962963,65.5555556 C84.8148148,63.9814815 80.1851852,60.0925926 81.2037037,49.6296296 Z"
          fill="#FFFFFF"/>
</svg>
